<svg width="24" height="24" viewBox="0 0 24 24" fill="none" xmlns="http://www.w3.org/2000/svg">
<path fill-rule="evenodd" clip-rule="evenodd" d="M4.29455 4H19.8095C21.6283 4 23.1041 5.5412 23.1041 7.44064V16.6205C23.1041 18.5199 21.6283 20.0611 19.8095 20.0611H4.29455C2.47576 20.0611 1 18.5199 1 16.6205V7.44064C1 5.5412 2.47576 4 4.29455 4ZM12.7405 9.44517C12.8606 9.52411 12.9806 9.60306 13.1007 9.68195V9.67954C13.2143 9.75423 13.328 9.82892 13.4417 9.90363C14.0307 10.2907 14.6206 10.6783 15.2073 11.0693C15.6217 11.3458 15.6378 11.8916 15.2257 12.1681C14.5231 12.6385 13.8136 13.1003 13.1036 13.5624C12.8993 13.6954 12.6949 13.8284 12.4906 13.9617C12.2805 14.0985 12.0692 14.2326 11.8579 14.3666C11.4417 14.6306 11.0258 14.8944 10.6212 15.1783C10.262 15.4308 9.72558 15.0821 9.73249 14.6085C9.74386 13.9025 9.74147 13.1965 9.73908 12.4904C9.73809 12.1962 9.73709 11.902 9.73709 11.6078V8.69135C9.73709 8.10469 10.2229 7.81616 10.711 8.12633C11.393 8.55898 12.0667 9.00202 12.7405 9.44517Z" fill="white"/>
</svg>
