<svg width="24" height="24" viewBox="0 0 24 24" fill="none" xmlns="http://www.w3.org/2000/svg">
<path d="M13.1007 9.97199C12.3064 9.45024 11.5144 8.92609 10.711 8.41637C10.2229 8.1062 9.73709 8.39472 9.73709 8.98139C9.73709 9.95275 9.73709 10.9265 9.73709 11.8979C9.73709 12.8981 9.7486 13.8983 9.73249 14.8985C9.72558 15.3722 10.262 15.7208 10.6212 15.4683C11.2313 15.0404 11.8667 14.6581 12.4906 14.2517C13.4046 13.6555 14.3209 13.064 15.2257 12.4581C15.6378 12.1816 15.6217 11.6358 15.2073 11.3593C14.5074 10.8929 13.8029 10.4312 13.1007 9.96958V9.97199Z" fill="white"/>
<path d="M19.8095 4H4.29455C2.47576 4 1 5.5412 1 7.44064V16.6205C1 18.5199 2.47576 20.0611 4.29455 20.0611H19.8095C21.6283 20.0611 23.1041 18.5199 23.1041 16.6205V7.44064C23.1041 5.5412 21.6283 4 19.8095 4ZM21.8517 16.6205C21.8517 17.7962 20.9354 18.7531 19.8095 18.7531H4.29455C3.16874 18.7531 2.25244 17.7962 2.25244 16.6205V7.44064C2.25244 6.26491 3.16874 5.30797 4.29455 5.30797H19.8095C20.9354 5.30797 21.8517 6.26491 21.8517 7.44064V16.6205Z" fill="white"/>
</svg>
