<svg width="24" height="24" viewBox="0 0 24 24" fill="none" xmlns="http://www.w3.org/2000/svg">
<path d="M9.01733 14.7492H4.08249C2.93246 14.7492 2 15.7104 2 16.8959V19.8509C2 21.0364 2.93246 22 4.08249 22H9.01733C10.1674 22 11.0998 21.0388 11.0998 19.8534V16.8983C11.0998 15.7129 10.1674 14.7517 9.01733 14.7517V14.7492ZM9.79916 19.8534C9.79916 20.297 9.4477 20.6593 9.01733 20.6593H4.08249C3.65212 20.6593 3.30066 20.297 3.30066 19.8534V16.8983C3.30066 16.4547 3.65212 16.0924 4.08249 16.0924H9.01733C9.4477 16.0924 9.79916 16.4547 9.79916 16.8983V19.8534ZM19.7501 2H4.24985C3.00657 1.99754 2 3.03513 2 4.3167V10.4954C2 11.777 3.00657 12.817 4.24985 12.817H19.7501C20.9934 12.817 22 11.7794 22 10.4978V4.31917C22 3.03759 20.9934 2 19.7501 2ZM20.6993 10.4978C20.6993 11.0376 20.2738 11.4763 19.7501 11.4763H4.24985C3.72624 11.4763 3.30066 11.0376 3.30066 10.4978V4.31917C3.30066 3.77943 3.72624 3.34073 4.24985 3.34073H19.7501C20.2738 3.34073 20.6993 3.77943 20.6993 4.31917V10.4978ZM19.9175 14.7492H14.9827C13.8326 14.7492 12.9002 15.7104 12.9002 16.8959V19.8534C12.9002 21.0388 13.8326 22 14.9827 22H19.9175C21.0675 22 22 21.0388 22 19.8534V16.8959C22 15.7104 21.0675 14.7492 19.9175 14.7492ZM20.6993 19.8534C20.6993 20.297 20.3479 20.6593 19.9175 20.6593H14.9827C14.5523 20.6593 14.2008 20.297 14.2008 19.8534V16.8959C14.2008 16.4522 14.5523 16.09 14.9827 16.09H19.9175C20.3479 16.09 20.6993 16.4522 20.6993 16.8959V19.8534Z" fill="white"/>
</svg>
