<svg width="24" height="24" viewBox="0 0 24 24" fill="none" xmlns="http://www.w3.org/2000/svg">
<path d="M19.8653 2H4.26445C3.01383 2 2 3.01296 2 4.2625V10.2926C2 11.5422 3.01383 12.5551 4.26445 12.5551H19.8653C21.1159 12.5551 22.1298 11.5422 22.1298 10.2926V4.2625C22.1298 3.01296 21.1159 2 19.8653 2Z" fill="white"/>
<path d="M9.06286 14.4404H4.096C2.93841 14.4404 2 15.378 2 16.5346V19.4199C2 20.5764 2.93841 21.5141 4.096 21.5141H9.06286C10.2205 21.5141 11.1589 20.5764 11.1589 19.4199V16.5346C11.1589 15.378 10.2205 14.4404 9.06286 14.4404Z" fill="white"/>
<path d="M20.0336 14.4404H15.0667C13.9091 14.4404 12.9707 15.378 12.9707 16.5346V19.4199C12.9707 20.5764 13.9091 21.5141 15.0667 21.5141H20.0336C21.1912 21.5141 22.1296 20.5764 22.1296 19.4199V16.5346C22.1296 15.378 21.1912 14.4404 20.0336 14.4404Z" fill="white"/>
</svg>
