<svg width="78" height="18" viewBox="0 0 78 18" fill="none" xmlns="http://www.w3.org/2000/svg">
<path d="M73.7591 6.7989C73.7855 6.39059 73.8084 6.0738 73.833 5.70421H77.1365V17.4168H73.8471C73.8172 17.1 73.7873 16.7885 73.7433 16.3379C72.205 17.7072 70.4944 18.1014 68.5866 17.5505C67.256 17.1669 66.2529 16.3397 65.4873 15.2203C63.8276 12.7916 64.2183 9.06574 66.3338 6.93442C68.2698 4.98438 71.0083 4.90694 73.7591 6.7989ZM73.7855 11.6406C73.789 9.91404 72.5729 8.66095 70.8904 8.65919C69.2536 8.65743 67.9741 9.9158 67.9688 11.5332C67.9635 13.2193 69.2378 14.5322 70.8745 14.5304C72.5025 14.5269 73.782 13.258 73.7855 11.6406Z" fill="black"/>
<path d="M52.8596 6.8284C52.9054 6.37785 52.9406 6.03993 52.9776 5.67562H56.2335V17.4023H52.9881C52.9476 17.0925 52.9054 16.7652 52.8596 16.4132C49.6125 18.3738 46.8564 18.0851 44.8852 15.6177C42.9387 13.1801 43.1957 9.21491 45.4502 6.91464C47.358 4.96636 50.2549 4.90652 52.8614 6.83016L52.8596 6.8284ZM49.9434 8.657C48.3084 8.67636 47.05 9.96466 47.0852 11.5838C47.1222 13.2998 48.3911 14.5634 50.0349 14.523C51.6576 14.4842 52.9124 13.1995 52.9089 11.5838C52.9054 9.91714 51.6083 8.63764 49.9434 8.657Z" fill="black"/>
<path d="M27.214 17.4416H23.9634C23.9282 17.0896 23.893 16.7588 23.8454 16.2888C22.3917 17.6317 20.7743 18.0611 18.9334 17.6247C17.6486 17.3202 16.6366 16.6144 15.8341 15.5937C13.9738 13.2265 14.1516 9.44258 16.2195 7.15111C18.1713 4.98811 20.8324 4.85084 23.8578 6.8044C23.8842 6.43128 23.9088 6.09689 23.937 5.70618H27.214V17.4434V17.4416ZM18.0657 11.4929C18.0481 13.2195 19.2502 14.4972 20.9133 14.5254C22.5114 14.5518 23.8472 13.2723 23.8894 11.6777C23.9334 10.0181 22.661 8.6858 21.0049 8.6594C19.3522 8.63124 18.0816 9.85617 18.0657 11.4947V11.4929Z" fill="black"/>
<path d="M29.8716 2.21973H33.1891V5.62174H35.9787V8.70872H33.2701V14.404H35.991V17.4153H29.8716V2.21973Z" fill="black"/>
<path d="M13.4537 5.65144V8.71378H10.6994V14.4389H13.459V17.3974H7.30615V2.23535H10.6342V5.65144H13.4537Z" fill="black"/>
<path d="M59.0604 5.69141H62.3621V17.4251H59.0604V5.69141Z" fill="black"/>
<path d="M1.28296 5.68262H4.56177V17.4163H1.28296V5.68262Z" fill="black"/>
<path d="M41.4545 17.4374H38.2039V5.70898H41.4545V17.4374Z" fill="black"/>
<path d="M60.7391 4.12818C59.5441 4.14754 58.6219 3.23588 58.6237 2.03735C58.6237 0.90393 59.5336 0.0116277 60.6969 0.00106789C61.8972 -0.0094919 62.8229 0.89689 62.8247 2.08487C62.8265 3.19892 61.8954 4.11059 60.7374 4.12994L60.7391 4.12818Z" fill="black"/>
<path d="M0.862305 2.03458C0.862305 0.895886 1.76869 0.00886335 2.9373 6.3531e-05C4.13936 -0.00873629 5.06158 0.897646 5.05806 2.08386C5.05454 3.20848 4.1376 4.10782 2.9725 4.1307C1.78277 4.15358 0.862305 3.2384 0.862305 2.03458Z" fill="black"/>
<path d="M39.8154 0C41.0298 0.00175996 41.9203 0.892302 41.9133 2.09612C41.9062 3.22778 40.9928 4.12184 39.8312 4.13416C38.6433 4.14648 37.7334 3.2313 37.7351 2.02396C37.7386 0.878222 38.6415 0 39.8154 0Z" fill="black"/>
</svg>
