<svg width="19" height="22" viewBox="0 0 19 22" fill="none" xmlns="http://www.w3.org/2000/svg">
<path d="M9.61822 0.900001L9.61822 0.899703L9.61051 0.900264C9.49959 0.908342 9.38784 0.915674 9.27566 0.923034C9.03566 0.93878 8.79373 0.954653 8.55389 0.978233L8.55377 0.978245C8.32387 1.00114 8.08974 1.03418 7.8614 1.08874C4.61545 1.85825 2.40889 3.81313 1.3237 6.97022C0.66272 8.89237 0.760157 10.7891 1.72143 12.6218L1.72145 12.6218C2.24348 13.6165 2.83694 14.5631 3.51573 15.4566L3.51574 15.4566C5.13494 17.5873 7.00207 19.4828 9.00449 21.2446C9.20027 21.4169 9.40692 21.5156 9.62221 21.5153C9.83843 21.515 10.0438 21.4149 10.2363 21.2298L10.167 21.1577L10.2363 21.2298C10.4989 20.9771 10.7629 20.7252 11.0271 20.4731C11.9314 19.6102 12.838 18.745 13.7018 17.8401L13.7018 17.8401C15.095 16.3797 16.337 14.7891 17.3087 13.0021L17.2208 12.9543L17.3087 13.002C18.1139 11.5208 18.5039 9.97198 18.229 8.25752C17.5579 4.0636 13.8963 0.918917 9.61822 0.900001ZM9.61094 19.5701C8.36203 18.4432 7.19782 17.2668 6.10974 16.0146C5.08314 14.8328 4.12502 13.6079 3.37914 12.2324L3.37914 12.2324C2.82414 11.2092 2.46831 10.1561 2.58468 8.97804L2.58468 8.97802C2.88364 5.94473 5.07529 3.4341 8.04481 2.74995C12.0259 1.83303 15.9743 4.53262 16.5964 8.5779C16.798 9.88935 16.4828 11.0748 15.8566 12.2203C15.0533 13.6889 14.0458 15.013 12.9124 16.2366C12.1896 17.0164 11.4355 17.766 10.6798 18.5172C10.3545 18.8406 10.0288 19.1644 9.7052 19.4909L9.70475 19.4914C9.68005 19.5166 9.65467 19.5363 9.61952 19.5635C9.61672 19.5656 9.61386 19.5678 9.61094 19.5701Z" fill="white" stroke="white" stroke-width="0.2"/>
<path d="M7.89751 9.59779C7.90866 8.65712 8.68296 7.90332 9.63525 7.90926V7.90926C10.5799 7.9167 11.3417 8.69038 11.3352 9.63725C11.3287 10.5763 10.5458 11.3505 9.60907 11.345L9.60907 11.345C8.65994 11.3394 7.88635 10.5495 7.89751 9.59779ZM7.89751 9.59779L7.79752 9.5966L7.89751 9.59779ZM9.61231 12.9967L9.71242 12.9968V12.9943C11.5363 12.9431 13.0067 11.4425 12.9977 9.61383C12.9886 7.75793 11.4738 6.24484 9.62144 6.2418C7.76007 6.23876 6.22886 7.77181 6.23596 9.63045C6.24306 11.4896 7.75324 12.9946 9.61231 12.9967Z" fill="white" stroke="white" stroke-width="0.2"/>
</svg>
