<svg width="22" height="22" viewBox="0 0 22 22" fill="none" xmlns="http://www.w3.org/2000/svg">
<path d="M19.325 5.89687C19.325 6.20295 19.3362 6.51014 19.3217 6.81622C19.3038 7.18485 19.4244 7.47641 19.6948 7.73333C20.1796 8.19356 20.6465 8.6739 21.1179 9.14866C22.1478 10.1886 22.1456 11.6933 21.1123 12.7356C20.6219 13.2304 20.1304 13.7253 19.6322 14.2123C19.4177 14.4212 19.3217 14.6636 19.3239 14.9596C19.3284 15.5729 19.3295 16.1862 19.3239 16.7995C19.3116 18.255 18.2549 19.3084 16.8038 19.3173C16.1995 19.3207 15.5962 19.3229 14.9919 19.3173C14.6758 19.314 14.42 19.419 14.1977 19.648C13.7251 20.135 13.2426 20.6109 12.76 21.0879C11.6943 22.1446 10.1907 22.1458 9.13176 21.0912C8.67153 20.6321 8.20124 20.1808 7.75553 19.7083C7.4852 19.4212 7.17801 19.3028 6.78927 19.3151C6.22291 19.3319 5.65544 19.3218 5.08909 19.3185C3.63467 19.3095 2.57457 18.2561 2.56451 16.805C2.56005 16.2108 2.55669 15.6154 2.56675 15.0211C2.57233 14.6848 2.46733 14.4134 2.22157 14.1766C1.72671 13.6996 1.24526 13.2092 0.760448 12.721C-0.256084 11.6967 -0.252733 10.1797 0.766034 9.15536C1.25754 8.66161 1.74682 8.16564 2.24615 7.67859C2.46733 7.463 2.56787 7.21278 2.56451 6.9067C2.55893 6.29343 2.55893 5.68016 2.56451 5.06689C2.57568 3.63034 3.63578 2.57136 5.06898 2.56354C5.68225 2.56018 6.29552 2.56018 6.90879 2.56354C7.21375 2.56577 7.46509 2.46412 7.68069 2.24405C8.17443 1.73914 8.676 1.24204 9.17756 0.744948C10.1807 -0.245892 11.6977 -0.249243 12.7053 0.74048C13.1957 1.22194 13.6872 1.70451 14.1619 2.20049C14.4121 2.463 14.6981 2.57247 15.0556 2.56577C15.6409 2.5546 16.2263 2.56018 16.8116 2.56354C18.247 2.57136 19.306 3.62475 19.3239 5.0613C19.3272 5.33945 19.3239 5.61872 19.3239 5.89687H19.325Z" fill="white"/>
<path d="M9.01442 14.2448C8.54413 14.228 8.29168 14.0806 8.14199 13.7779C7.98113 13.4517 8.03363 13.1445 8.26152 12.8697C8.99096 11.9906 9.72376 11.1137 10.4543 10.2368C11.0843 9.48051 11.7144 8.72425 12.3444 7.96688C12.5745 7.68985 12.8705 7.58149 13.2146 7.6675C13.5497 7.75128 13.7888 7.98363 13.8089 8.32546C13.8223 8.54664 13.762 8.82702 13.6268 8.99235C12.2696 10.6534 10.8944 12.3 9.50928 13.9376C9.36741 14.1052 9.11831 14.1823 9.01554 14.2437L9.01442 14.2448Z" fill="#FF173E"/>
<path d="M13.4099 13.8329C12.7341 13.8262 12.1711 13.2543 12.1778 12.5807C12.1845 11.9037 12.7553 11.343 13.4289 11.3497C14.1081 11.3564 14.6677 11.9261 14.6599 12.6008C14.6521 13.2811 14.0846 13.8396 13.4099 13.8329Z" fill="#FF173E"/>
<path d="M9.71066 9.2846C9.71401 9.95931 9.15101 10.5268 8.47406 10.5301C7.79824 10.5335 7.23076 9.9716 7.22853 9.29354C7.22518 8.61883 7.7893 8.05024 8.46513 8.04689C9.13984 8.04354 9.70842 8.60766 9.71177 9.28348L9.71066 9.2846Z" fill="#FF173E"/>
</svg>
