<svg width="24" height="24" viewBox="0 0 24 24" fill="none" xmlns="http://www.w3.org/2000/svg">
<path d="M4.90348 7.8037H19.3252C20.3768 7.8037 21.2287 6.95255 21.2287 5.90185C21.2287 4.85114 20.3768 4 19.3252 4H4.90348C3.85187 4 3 4.85114 3 5.90185C3 6.95255 3.85187 7.8037 4.90348 7.8037ZM4.90348 5.13486H19.3252C19.7487 5.13486 20.0928 5.47868 20.0928 5.90185C20.0928 6.32502 19.7487 6.66884 19.3252 6.66884H4.90348C4.47995 6.66884 4.13583 6.32502 4.13583 5.90185C4.13583 5.47868 4.47995 5.13486 4.90348 5.13486Z" fill="white"/>
<path d="M19.3252 10.3037H4.90348C3.85187 10.3037 3 11.1549 3 12.2056C3 13.2563 3.85187 14.1074 4.90348 14.1074H19.3252C20.3768 14.1074 21.2287 13.2563 21.2287 12.2056C21.2287 11.1549 20.3768 10.3037 19.3252 10.3037ZM19.3252 12.9726H4.90348C4.47995 12.9726 4.13583 12.6287 4.13583 12.2056C4.13583 11.7824 4.47995 11.4386 4.90348 11.4386H19.3252C19.7487 11.4386 20.0928 11.7824 20.0928 12.2056C20.0928 12.6287 19.7487 12.9726 19.3252 12.9726Z" fill="white"/>
<path d="M19.3252 16.6108H4.90348C3.85187 16.6108 3 17.462 3 18.5127C3 19.5634 3.85187 20.4145 4.90348 20.4145H19.3252C20.3768 20.4145 21.2287 19.5634 21.2287 18.5127C21.2287 17.462 20.3768 16.6108 19.3252 16.6108ZM19.3252 19.2797H4.90348C4.47995 19.2797 4.13583 18.9359 4.13583 18.5127C4.13583 18.0895 4.47995 17.7457 4.90348 17.7457H19.3252C19.7487 17.7457 20.0928 18.0895 20.0928 18.5127C20.0928 18.9359 19.7487 19.2797 19.3252 19.2797Z" fill="white"/>
</svg>
