<svg width="23" height="24" viewBox="0 0 23 24" fill="none" xmlns="http://www.w3.org/2000/svg">
<path d="M20.4605 5.41141C20.4605 6.29647 20.0984 7.01671 19.4586 7.61108C19.3224 7.73696 19.177 7.85375 19.3276 8.07047C19.4807 8.29109 19.4171 8.65056 19.8817 8.64278C21.439 8.61942 22.5563 9.43959 22.9093 10.7996C23.3544 12.5139 22.1073 14.2464 20.3385 14.3684C20.1984 14.3775 20.0556 14.4021 19.9193 14.3814C19.6299 14.3372 19.5261 14.4826 19.4028 14.7266C19.2302 15.0679 19.3029 15.2625 19.5638 15.5221C20.881 16.8341 20.7278 18.9053 19.2601 19.9538C18.1194 20.7688 16.5855 20.6261 15.533 19.6086C15.1813 19.2686 14.8478 19.2375 14.465 19.5502C14.3845 19.6164 14.3715 19.7994 14.3754 19.9266C14.4014 20.8662 14.1016 21.6733 13.3852 22.2898C12.5067 23.0425 11.4996 23.2345 10.429 22.7881C9.34149 22.3352 8.74064 21.4891 8.64201 20.3029C8.63552 20.2277 8.62255 20.1498 8.63552 20.0771C8.7043 19.6969 8.54209 19.5269 8.18521 19.3712C7.84261 19.2219 7.70245 19.3751 7.50779 19.5684C6.17372 20.8843 4.13108 20.7545 3.07083 19.292C2.24677 18.1565 2.37654 16.6096 3.38229 15.5597C3.7768 15.147 3.80405 14.9602 3.47962 14.4982C3.42511 14.4216 3.2603 14.3904 3.1474 14.3917C2.52059 14.3982 1.92623 14.2944 1.38378 13.9583C0.311845 13.2939 -0.218929 12.0247 0.0847411 10.8308C0.402686 9.57974 1.45775 8.70766 2.73472 8.64148C2.85281 8.63499 2.9735 8.61812 3.0903 8.63369C3.35633 8.67003 3.46924 8.55193 3.58863 8.31315C3.77031 7.95108 3.69245 7.74215 3.41084 7.46573C2.25456 6.32891 2.24028 4.52376 3.34336 3.39473C4.45552 2.25662 6.26975 2.24883 7.4442 3.37786C7.52985 3.45962 7.59993 3.56863 7.69986 3.62184C7.79589 3.67245 7.92696 3.6984 8.03337 3.68023C8.52392 3.59458 8.6511 3.30649 8.65499 2.80296C8.66667 1.28461 9.80738 0.134819 11.3361 0.00893842C12.7299 -0.10656 14.0406 0.909567 14.3196 2.34357C14.3728 2.61609 14.3702 2.90159 14.3676 3.1819C14.3663 3.36878 14.4079 3.49595 14.6051 3.53489C14.6155 3.53748 14.6272 3.53878 14.6363 3.54527C15.01 3.79054 15.2734 3.6984 15.5901 3.37397C16.4362 2.51097 17.682 2.30204 18.7553 2.77312C19.8038 3.23251 20.467 4.25773 20.4631 5.41271L20.4605 5.41141ZM5.90379 7.54749C5.83501 7.76421 5.79867 7.91085 5.74287 8.04971C5.4963 8.65705 5.23675 9.2592 4.99537 9.86914C4.82797 10.2935 4.5243 10.5297 4.0649 10.5401C3.73008 10.5479 3.39527 10.5414 3.06175 10.5427C2.35318 10.5453 1.92104 10.906 1.91844 11.4952C1.91585 12.087 2.35189 12.462 3.04877 12.4659C3.37191 12.4672 3.69634 12.4633 4.01948 12.4659C4.54636 12.4724 4.84094 12.7151 5.02522 13.2134C5.23027 13.7675 5.45218 14.3165 5.70005 14.8537C5.94013 15.3728 5.90509 15.7284 5.4989 16.1463C5.25103 16.4019 4.98889 16.6446 4.74751 16.9055C4.34002 17.3428 4.34261 17.9112 4.74232 18.2914C5.13553 18.6652 5.68318 18.6522 6.10494 18.2486C6.38525 17.98 6.64999 17.6932 6.93419 17.4284C7.27809 17.1079 7.63886 17.0742 8.06841 17.261C8.66018 17.518 9.25584 17.7633 9.8554 17.9995C10.2901 18.1708 10.5263 18.4809 10.5341 18.9585C10.5393 19.3257 10.5315 19.693 10.5367 20.059C10.5458 20.6546 10.9338 21.0725 11.4802 21.0842C12.0382 21.0958 12.4431 20.6754 12.4574 20.0616C12.4651 19.7164 12.4574 19.3712 12.46 19.0247C12.4651 18.4472 12.6961 18.1643 13.2295 17.9709C13.7849 17.7698 14.3313 17.5414 14.8673 17.2935C15.3552 17.069 15.7225 17.0975 16.1092 17.4674C16.3752 17.7204 16.6257 17.9891 16.8904 18.2434C17.32 18.6561 17.8871 18.6652 18.2764 18.272C18.6657 17.8801 18.6502 17.322 18.2323 16.8873C17.9714 16.6148 17.6963 16.3539 17.4381 16.0788C17.1084 15.7271 17.0734 15.3573 17.2681 14.916C17.5237 14.3359 17.7625 13.7481 17.9922 13.1576C18.1635 12.7164 18.4685 12.475 18.9408 12.4672C19.3185 12.4607 19.6961 12.4724 20.0738 12.4633C20.6681 12.4477 21.0795 12.0493 21.0808 11.5017C21.0821 10.9514 20.6759 10.5595 20.0738 10.544C19.7065 10.5349 19.3405 10.5466 18.9733 10.5401C18.462 10.5323 18.1609 10.2883 17.9818 9.81593C17.7664 9.24363 17.5354 8.67522 17.2823 8.11719C17.063 7.63184 17.0994 7.26847 17.477 6.87785C17.7249 6.6222 17.9831 6.37693 18.2297 6.11998C18.6463 5.68783 18.6657 5.12721 18.2829 4.7327C17.8936 4.3317 17.3096 4.34467 16.8723 4.77033C16.6023 5.03377 16.3467 5.31279 16.0703 5.57103C15.7315 5.88898 15.3565 5.92272 14.9347 5.73715C14.3546 5.48279 13.7694 5.23881 13.1763 5.01301C12.7052 4.83262 12.4651 4.53155 12.4587 4.01635C12.4535 3.63871 12.4677 3.25977 12.4535 2.88342C12.4314 2.30853 12.0252 1.91401 11.4854 1.9218C10.9468 1.92959 10.5497 2.33448 10.5367 2.90549C10.5276 3.28313 10.5393 3.66077 10.5328 4.03841C10.525 4.52766 10.2811 4.83522 9.82555 5.01041C9.24416 5.23362 8.66667 5.46981 8.09826 5.72417C7.62848 5.9344 7.25863 5.89417 6.88488 5.5321C6.62144 5.27645 6.37227 5.00652 6.10753 4.75216C5.68188 4.34208 5.10698 4.33429 4.72025 4.72491C4.33223 5.11683 4.3478 5.68264 4.76178 6.11219C5.01614 6.37563 5.30034 6.61571 5.53134 6.89862C5.69485 7.09717 5.79218 7.35023 5.90119 7.54749H5.90379Z" fill="#FF173E"/>
<path d="M15.3332 11.5108C15.3293 13.6183 13.6124 15.3339 11.5036 15.3352C9.38435 15.3352 7.66485 13.604 7.67263 11.4796C7.68042 9.37858 9.4103 7.66557 11.5191 7.67206C13.6253 7.67855 15.3358 9.40065 15.3332 11.5108ZM11.4945 13.4158C12.5547 13.4223 13.4047 12.584 13.419 11.5186C13.4333 10.4531 12.5638 9.57973 11.4958 9.58622C10.4329 9.59271 9.59069 10.4388 9.59069 11.5017C9.59069 12.5632 10.4316 13.4106 11.4945 13.4171V13.4158Z" fill="#FF173E"/>
</svg>
