<svg width="25" height="25" viewBox="0 0 25 25" fill="none" xmlns="http://www.w3.org/2000/svg">
<circle cx="12.5" cy="12.5" r="12" stroke="white"/>
<path d="M13.5463 10.368C12.3304 10.9686 11.1219 11.5659 9.89917 12.1704C10.0977 12.6787 10.109 13.185 9.89672 13.708C11.1131 14.3097 12.3255 14.9094 13.5492 15.5143C14.0037 15.0923 14.541 14.871 15.1744 14.9228C15.6671 14.963 16.0907 15.1613 16.4418 15.5033C17.1183 16.1634 17.2237 17.2033 16.6947 17.9874C16.1608 18.7792 15.1352 19.0872 14.2405 18.7332C13.4992 18.4396 12.7035 17.552 13.0746 16.2482C12.8064 16.1145 12.5358 15.979 12.2647 15.8449C11.3553 15.3951 10.4453 14.9462 9.53686 14.4946C9.42949 14.4409 9.35497 14.4332 9.24564 14.5151C8.55829 15.0277 7.65179 15.0564 6.92914 14.6028C6.21874 14.1564 5.86869 13.332 6.04519 12.5201C6.21972 11.7178 6.90168 11.0917 7.75033 10.9782C8.30776 10.9035 8.81519 11.0438 9.26868 11.3739C9.31967 11.4108 9.42018 11.4385 9.46871 11.4151C10.6694 10.8278 11.8661 10.2329 13.0785 9.63175C12.8908 9.00186 12.9545 8.40407 13.3389 7.85753C13.6159 7.46427 13.9963 7.20274 14.465 7.07293C15.3749 6.8205 16.3604 7.24106 16.7972 8.06111C17.2453 8.90223 17.0296 9.92442 16.279 10.5208C15.5853 11.0721 14.4675 11.2053 13.5458 10.3675L13.5463 10.368ZM7.03503 12.9474C7.03748 13.4896 7.46892 13.9092 8.02341 13.9092C8.58525 13.9092 9.02208 13.4815 9.01914 12.934C9.0162 12.3893 8.573 11.9669 8.00919 11.9717C7.45862 11.9764 7.03258 12.4032 7.03503 12.9474ZM15.9951 8.98989C15.9981 8.44047 15.5578 8.00602 15.0023 8.00937C14.4513 8.01273 14.014 8.43952 14.011 8.976C14.0081 9.52062 14.4518 9.95747 15.0068 9.95747C15.5549 9.95747 15.9922 9.52876 15.9951 8.98941V8.98989ZM15.9951 16.8996C15.9961 16.3598 15.5671 15.9335 15.0146 15.9258C14.4626 15.9181 14.0105 16.3555 14.011 16.8972C14.011 17.4414 14.4582 17.8758 15.0122 17.871C15.5627 17.8667 15.9946 17.4394 15.9951 16.8996Z" fill="white"/>
</svg>
