<svg width="21" height="21" viewBox="0 0 21 21" fill="none" xmlns="http://www.w3.org/2000/svg">
<path d="M21.0014 10.0548C21.0253 15.5603 16.5335 20.0665 10.9964 20.0894C5.43452 20.1124 0.925492 15.6301 0.910191 10.0644C0.895846 4.55408 5.37618 0.0249675 10.8683 0.000103341C16.4771 -0.0247609 20.9766 4.44028 21.0014 10.0548ZM13.1921 18.4608C13.108 18.1118 13.0267 17.7895 12.9521 17.4662C12.7274 16.4985 12.9665 15.6512 13.6521 14.9416C14.3541 14.2148 15.0684 13.5004 15.7914 12.7956C16.5134 12.0908 17.3779 11.8642 18.3601 12.0908C18.6757 12.1635 18.9893 12.2419 19.325 12.3232C19.72 10.8179 19.7266 9.34426 19.3231 7.8591C19.0697 7.92031 18.8449 7.96908 18.624 8.03028C17.4296 8.35734 16.4235 8.07236 15.5734 7.15812C14.9613 6.50018 14.3034 5.88622 13.6722 5.24645C12.9435 4.50722 12.7035 3.62836 12.9473 2.61754C13.021 2.31152 13.0946 2.00454 13.1711 1.68226C11.6687 1.28252 10.1979 1.28061 8.70033 1.68513C8.77971 2.00741 8.85621 2.31343 8.92985 2.62041C9.14885 3.54229 8.9901 4.39341 8.34172 5.0877C7.57093 5.913 6.76858 6.71057 5.94519 7.48231C5.33984 8.04941 4.5987 8.28084 3.76479 8.11157C3.36314 8.03028 2.96436 7.93465 2.54358 7.84093C2.15244 9.32513 2.15149 10.8007 2.55123 12.2926C2.90411 12.2075 3.22639 12.1262 3.55058 12.0516C4.48012 11.8364 5.31498 12.0439 6.00352 12.6933C6.80109 13.4459 7.57571 14.2262 8.3312 15.0219C8.91072 15.632 9.1412 16.3818 9.00349 17.2205C8.93559 17.6326 8.82274 18.0372 8.7252 18.4656C10.2209 18.8596 11.6974 18.8625 13.1921 18.4627V18.4608ZM7.4466 2.09156C5.39435 3.02875 3.93502 4.49478 3.01026 6.54608C3.33636 6.62354 3.63282 6.70387 3.9331 6.76412C4.39596 6.85688 4.80335 6.72491 5.13423 6.3969C5.86199 5.67488 6.5821 4.94712 7.29933 4.21458C7.63213 3.87414 7.76028 3.46005 7.66178 2.98859C7.60153 2.70169 7.52598 2.41958 7.4466 2.09156ZM7.42748 17.9884C7.49442 17.7149 7.55658 17.4615 7.6197 17.209C7.75263 16.6773 7.62544 16.2192 7.23813 15.8329C6.54097 15.1357 5.84382 14.4376 5.14571 13.7414C4.85499 13.4507 4.50211 13.2824 4.09376 13.3283C3.7275 13.3694 3.36888 13.4765 3.00261 13.5559C3.70837 15.3748 5.46034 17.1803 7.42748 17.9903V17.9884ZM14.4669 2.10687C14.3875 2.43775 14.3082 2.73421 14.247 3.03545C14.1542 3.4897 14.2795 3.89326 14.6008 4.21841C15.3333 4.9586 16.0764 5.68922 16.8195 6.41889C17.0939 6.68857 17.4363 6.83202 17.8159 6.78707C18.1745 6.74499 18.5265 6.64076 18.9195 6.5566C17.9785 4.5053 16.5125 3.04405 14.4679 2.10687H14.4669ZM18.9023 13.5874C18.6078 13.5157 18.3476 13.4516 18.0866 13.3876C17.5826 13.2652 17.1379 13.3761 16.7688 13.7414C16.0448 14.4577 15.3266 15.1787 14.6084 15.9008C14.3627 16.1475 14.2011 16.4554 14.2269 16.7978C14.2584 17.2004 14.3665 17.5982 14.4478 18.0295C16.5096 17.0847 17.967 15.6263 18.9014 13.5865L18.9023 13.5874Z" fill="white"/>
<path d="M7.08008 10.0384C7.08103 9.53158 7.25221 9.06872 7.61848 8.6948C8.26304 8.03495 8.90855 7.37509 9.5751 6.73818C10.3325 6.01425 11.5145 5.97313 12.2882 6.67985C13.0217 7.34927 13.7255 8.05503 14.3949 8.78852C15.0481 9.50385 15.0404 10.6285 14.3825 11.3428C13.7093 12.0735 13.0054 12.7783 12.2757 13.4515C11.5088 14.1582 10.3449 14.119 9.59136 13.3932C8.92672 12.7534 8.2793 12.0955 7.63378 11.4375C7.26082 11.0579 7.08103 10.5912 7.08008 10.0394V10.0384ZM10.9665 12.6606C11.1521 12.5545 11.3462 12.4895 11.4801 12.3604C12.0921 11.7703 12.6908 11.164 13.2885 10.5587C13.5935 10.2507 13.6012 9.87203 13.299 9.5641C12.6927 8.94536 12.0787 8.33236 11.461 7.7251C11.1597 7.42864 10.7839 7.42864 10.4855 7.72319C9.86869 8.3314 9.25569 8.9444 8.64652 9.56218C8.33859 9.8749 8.33955 10.2402 8.64844 10.5539C9.25091 11.1659 9.85626 11.7751 10.4731 12.3728C10.5964 12.4923 10.7762 12.5516 10.9665 12.6606Z" fill="white"/>
</svg>
