<svg width="21" height="21" viewBox="0 0 21 21" fill="none" xmlns="http://www.w3.org/2000/svg">
<path d="M21.0014 10.0548C21.0253 15.5603 16.5335 20.0665 10.9964 20.0894C5.43452 20.1124 0.925492 15.6301 0.910191 10.0644C0.895846 4.55408 5.37618 0.0249675 10.8683 0.000103341C16.4771 -0.0247609 20.9766 4.44028 21.0014 10.0548ZM13.1921 18.4608C13.108 18.1118 13.0267 17.7895 12.9521 17.4662C12.7274 16.4985 12.9665 15.6512 13.6521 14.9416C14.3541 14.2148 15.0684 13.5004 15.7914 12.7956C16.5134 12.0908 17.3779 11.8642 18.3601 12.0908C18.6757 12.1635 18.9893 12.2419 19.325 12.3232C19.72 10.8179 19.7266 9.34426 19.3231 7.8591C19.0697 7.92031 18.8449 7.96908 18.624 8.03028C17.4296 8.35734 16.4235 8.07236 15.5734 7.15812C14.9613 6.50018 14.3034 5.88622 13.6722 5.24645C12.9435 4.50722 12.7035 3.62836 12.9473 2.61754C13.021 2.31152 13.0946 2.00454 13.1711 1.68226C11.6687 1.28252 10.1979 1.28061 8.70033 1.68513C8.77971 2.00741 8.85621 2.31343 8.92985 2.62041C9.14885 3.54229 8.9901 4.39341 8.34172 5.0877C7.57093 5.913 6.76858 6.71057 5.94519 7.48231C5.33984 8.04941 4.5987 8.28084 3.76479 8.11157C3.36314 8.03028 2.96436 7.93465 2.54358 7.84093C2.15244 9.32513 2.15149 10.8007 2.55123 12.2926C2.90411 12.2075 3.22639 12.1262 3.55058 12.0516C4.48012 11.8364 5.31498 12.0439 6.00352 12.6933C6.80109 13.4459 7.57571 14.2262 8.3312 15.0219C8.91072 15.632 9.1412 16.3818 9.00349 17.2205C8.93559 17.6326 8.82274 18.0372 8.7252 18.4656C10.2209 18.8596 11.6974 18.8625 13.1921 18.4627V18.4608ZM7.4466 2.09156C5.39435 3.02875 3.93502 4.49478 3.01026 6.54608C3.33636 6.62354 3.63282 6.70387 3.9331 6.76412C4.39596 6.85688 4.80335 6.72491 5.13423 6.3969C5.86199 5.67488 6.5821 4.94712 7.29933 4.21458C7.63213 3.87414 7.76028 3.46005 7.66178 2.98859C7.60153 2.70169 7.52598 2.41958 7.4466 2.09156ZM7.42748 17.9884C7.49442 17.7149 7.55658 17.4615 7.6197 17.209C7.75263 16.6773 7.62544 16.2192 7.23813 15.8329C6.54097 15.1357 5.84382 14.4376 5.14571 13.7414C4.85499 13.4507 4.50211 13.2824 4.09376 13.3283C3.7275 13.3694 3.36888 13.4765 3.00261 13.5559C3.70837 15.3748 5.46034 17.1803 7.42748 17.9903V17.9884ZM14.4669 2.10687C14.3875 2.43775 14.3082 2.73421 14.247 3.03545C14.1542 3.4897 14.2795 3.89326 14.6008 4.21841C15.3333 4.9586 16.0764 5.68922 16.8195 6.41889C17.0939 6.68857 17.4363 6.83202 17.8159 6.78707C18.1745 6.74499 18.5265 6.64076 18.9195 6.5566C17.9785 4.5053 16.5125 3.04405 14.4679 2.10687H14.4669ZM18.9023 13.5874C18.6078 13.5157 18.3476 13.4516 18.0866 13.3876C17.5826 13.2652 17.1379 13.3761 16.7688 13.7414C16.0448 14.4577 15.3266 15.1787 14.6084 15.9008C14.3627 16.1475 14.2011 16.4554 14.2269 16.7978C14.2584 17.2004 14.3665 17.5982 14.4478 18.0295C16.5096 17.0847 17.967 15.6263 18.9014 13.5865L18.9023 13.5874Z" fill="white"/>
<path d="M7 5C7.5 4.5 8 4 7.5 1.5C7.5 1.33333 7.9 1 9.5 1C11.1 1 12.8333 1.33333 13.5 1.5L11.5 7C11.3333 6.83333 10.9 6.5 10.5 6.5C10 6.5 8 8.5 7.5 9C7 9.5 7.5 10.5 8 11L10.5 13.5L11 19.5L7.5 18.5C7.66667 18 7.9 16.8 7.5 16C7 15 5.5 13.5 4.5 13C3.7 12.6 2.16667 12.8333 1.5 13C1.33333 12.5 1 11.3 1 10.5C1 9.7 1.33333 7.83333 1.5 7C2.16667 7.16667 3.7 7.5 4.5 7.5C5.5 7.5 6.5 5.5 7 5Z" fill="white"/>
<path d="M14.4999 5C12.4999 3.5 12.9999 2 13.4999 1.5L12 1L10 5C10.3333 5.5 11.2 6.7 12 7.5C13 8.5 14 9.5 14 10C14 10.5 12.5 12.5 11.5 13C10.7 13.4 9.33333 12.3333 9 12V18.5L11.5 19H14C13.8334 18.3333 13.4999 16.4 13.4999 16C13.4999 15.5 15.5 13 16.5 12.5C17.3 12.1 18.8333 12.3333 19.5 12.5C19.6667 12.3333 20 11.7 20 10.5C20 9.3 19.3333 7.33333 19 6.5C18.6667 6.66667 17.8 7 17 7C16 7 16.4999 6.5 14.4999 5Z" fill="white"/>
<path d="M7.07812 10.0384C7.07908 9.53158 7.25026 9.06872 7.61653 8.6948C8.26109 8.03495 8.9066 7.37509 9.57315 6.73818C10.3306 6.01425 11.5126 5.97313 12.2862 6.67985C13.0197 7.34927 13.7236 8.05503 14.393 8.78852C15.0461 9.50385 15.0385 10.6285 14.3805 11.3428C13.7073 12.0735 13.0035 12.7783 12.2738 13.4515C11.5068 14.1582 10.343 14.119 9.58941 13.3932C8.92477 12.7534 8.27734 12.0955 7.63183 11.4375C7.25887 11.0579 7.07908 10.5912 7.07812 10.0394V10.0384ZM10.9646 12.6606C11.1501 12.5545 11.3442 12.4895 11.4781 12.3604C12.0902 11.7703 12.6888 11.164 13.2865 10.5587C13.5916 10.2507 13.5992 9.87203 13.297 9.5641C12.6907 8.94536 12.0768 8.33236 11.459 7.7251C11.1578 7.42864 10.7819 7.42864 10.4836 7.72319C9.86674 8.3314 9.25374 8.9444 8.64457 9.56218C8.33664 9.8749 8.33759 10.2402 8.64648 10.5539C9.24896 11.1659 9.85431 11.7751 10.4711 12.3728C10.5945 12.4923 10.7743 12.5516 10.9646 12.6606Z" fill="white"/>
</svg>
