<svg width="18" height="21" viewBox="0 0 18 21" fill="none" xmlns="http://www.w3.org/2000/svg">
<path d="M4.46277 6.76523C4.46277 7.08492 4.46277 7.40054 4.46277 7.71718C4.46277 7.73037 4.46277 7.74356 4.46277 7.75676V7.88463C4.46277 8.16473 4.483 8.41134 4.55785 8.60112C4.67114 8.82541 4.87647 8.97155 5.13441 8.99692C5.16273 8.99895 5.19206 9.00098 5.22241 9.00098C5.64926 8.99692 5.95878 8.67216 5.96485 8.20837C5.97092 7.73646 5.98812 5.40227 5.98812 5.05417C5.98812 4.0667 6.04476 2.94223 7.01682 2.16586C8.05765 1.33469 9.24516 1.26568 10.4043 1.85531C11.7254 2.52715 11.9186 3.76326 11.9186 5.11811C11.9186 5.11811 11.9469 7.23917 11.9469 7.88564C11.9469 8.24186 11.9793 8.54328 12.1178 8.74321C12.2352 8.88224 12.4 8.97358 12.5912 8.99591C12.6236 8.99895 12.657 8.99997 12.6924 9.00098C13.102 8.99591 13.4176 8.68739 13.4308 8.25303C13.4429 7.85621 13.4338 7.4594 13.4338 7.06259C13.4338 6.97125 13.4419 4.73144 13.4308 4.48889C13.4176 4.2027 13.4075 3.91448 13.361 3.63234C13.0292 1.60464 11.1872 -0.334767 8.28929 0.048852C5.99014 0.353312 4.4658 2.16688 4.46277 4.49904C4.46277 4.74159 4.46277 4.98313 4.46277 5.25105V6.76422V6.76523Z" fill="white"/>
<path d="M17.8823 17.0508C17.856 16.4195 17.7711 15.7903 17.7094 15.1611C17.5334 13.3821 17.3533 11.603 17.1763 9.82292C17.0519 8.5726 16.9345 7.32127 16.8031 6.07096C16.7403 5.47219 16.4774 5.25298 15.8694 5.25095C15.4052 5.25095 15.3455 5.25095 14.8812 5.25095V8.37876C14.8812 9.58341 13.9071 10.5607 12.7065 10.5607C11.5058 10.5607 10.5317 9.58341 10.5317 8.37876V5.23877H7.29492V8.37876C7.29492 9.52759 6.36636 10.4592 5.22133 10.4592C4.07631 10.4592 3.14775 9.52759 3.14775 8.37876V5.25196C2.73708 5.25196 2.42857 5.25196 2.0179 5.25196C1.41707 5.25399 1.15408 5.48031 1.09237 6.08212C0.91435 7.81856 0.745428 9.55702 0.572461 11.2945C0.393425 13.0908 0.238665 14.8891 0.0292835 16.6824C-0.244834 19.0257 1.43629 20.9885 3.78196 20.9935C7.23018 21.0006 10.6784 21.0006 14.1266 20.9935C16.3256 20.9885 17.9744 19.2591 17.8823 17.0518V17.0508Z" fill="white"/>
</svg>
