<svg width="19" height="21" viewBox="0 0 19 21" fill="none" xmlns="http://www.w3.org/2000/svg">
<path d="M4.7618 5.25203C4.7618 4.9841 4.7618 4.74155 4.7618 4.50001C4.76483 2.16785 6.28917 0.353273 8.58832 0.0498285C11.4873 -0.333791 13.3282 1.60562 13.662 3.63332C13.7086 3.91545 13.7187 4.20367 13.7318 4.48987C13.7429 4.73242 13.7338 4.97599 13.7338 5.23985C13.8441 5.24493 13.9341 5.25203 14.0231 5.25304C14.7383 5.25304 15.4524 5.25304 16.1675 5.25304C16.7754 5.25406 17.0384 5.47428 17.1011 6.07306C17.2326 7.32337 17.35 8.5747 17.4744 9.82501C17.6514 11.6041 17.8304 13.3831 18.0074 15.1632C18.0702 15.7924 18.1551 16.4216 18.1804 17.0529C18.2714 19.2602 16.6227 20.9906 14.4247 20.9946C10.9765 21.0017 7.52826 21.0017 4.08004 20.9946C1.73538 20.9895 0.0532471 19.0278 0.327365 16.6835C0.536746 14.8912 0.691506 13.0919 0.870542 11.2956C1.04351 9.5581 1.21243 7.82065 1.39046 6.0832C1.45216 5.48139 1.71515 5.25406 2.31598 5.25304C3.03112 5.25101 3.74524 5.25304 4.46037 5.25304C4.5504 5.25304 4.64143 5.25304 4.76079 5.25304L4.7618 5.25203ZM2.84197 6.76519C2.82679 6.85552 2.81061 6.92148 2.80353 6.98846C2.68114 8.20529 2.56077 9.42211 2.43939 10.6399C2.24113 12.6291 2.03579 14.6182 1.85069 16.6084C1.81529 16.99 1.79101 17.3929 1.86991 17.7623C2.0975 18.8299 2.98964 19.4926 4.13972 19.4987C5.26654 19.5048 6.39336 19.5007 7.52017 19.5007C9.791 19.5007 12.0618 19.5048 14.3326 19.4997C15.7488 19.4967 16.8007 18.428 16.6925 17.1107C16.6369 16.4379 16.5661 15.7671 16.5003 15.0952C16.2687 12.762 16.036 10.4289 15.8024 8.09568C15.7579 7.65422 15.7093 7.21275 15.6618 6.75809H13.7348C13.7348 6.87987 13.7348 6.97121 13.7348 7.06255C13.7348 7.45936 13.744 7.85617 13.7318 8.25299C13.7177 8.69445 13.3919 9.00703 12.9732 9.00196C12.5656 8.99688 12.256 8.68633 12.2338 8.25806C12.2277 8.13222 12.2318 8.00536 12.2318 7.8785C12.2318 7.51112 12.2318 7.14272 12.2318 6.77737H6.26692C6.26692 7.26654 6.27197 7.73845 6.2659 8.21036C6.25983 8.67416 5.95031 8.99891 5.52346 9.00297C5.08649 9.00703 4.77293 8.67822 4.76382 8.20123C4.76079 8.04088 4.76382 7.88053 4.76382 7.72018C4.76382 7.40354 4.76382 7.08691 4.76382 6.76824H2.84399L2.84197 6.76519ZM12.2065 5.23884C12.3541 3.79671 12.0628 2.54538 10.7034 1.85324C9.54419 1.26361 8.35668 1.33262 7.31585 2.16379C6.29018 2.98279 6.30738 4.06565 6.30738 5.23884H12.2055H12.2065Z" fill="white"/>
</svg>
