<svg width="16" height="13" viewBox="0 0 16 13" fill="none" xmlns="http://www.w3.org/2000/svg">
<path d="M11.411 3.53625C11.2919 3.51429 11.1066 3.52015 10.9027 3.66797C10.663 3.84214 10.4505 4.16999 10.8094 4.73788C11.5575 5.92195 11.5589 7.07381 10.8109 8.25934C10.439 8.84918 10.6744 9.18142 10.9372 9.35852C11.0305 9.42145 11.1626 9.48439 11.3163 9.48439C11.5087 9.48439 11.7341 9.38486 11.9552 9.05555C12.4807 8.27691 12.7421 7.41337 12.7334 6.49422C12.7349 5.5897 12.475 4.73934 11.9581 3.96802C11.8404 3.79238 11.6709 3.58308 11.4096 3.53625H11.411ZM15.9943 6.4386C15.9727 6.27468 15.9555 6.11075 15.9368 5.94683C15.8966 5.58239 15.8535 5.20477 15.7832 4.83155C15.5362 3.53332 14.9533 2.31266 14.0501 1.20471C13.595 0.647067 13.1556 0.929545 13.0321 1.03053C12.821 1.20031 12.7665 1.39351 12.7564 1.5267C12.7464 1.67014 12.7808 1.89261 13.0034 2.13264C13.0465 2.17947 13.0895 2.23656 13.1398 2.30242C14.277 3.80409 14.7408 5.50481 14.5182 7.35775C14.3689 8.59744 13.8922 9.73467 13.101 10.7402L13.0852 10.7607C13.0795 10.768 13.0737 10.7753 13.068 10.7826C12.9962 10.8646 12.7808 11.1119 12.811 11.431C12.8225 11.5598 12.8813 11.7486 13.0924 11.9125C13.1728 11.9755 13.3193 12.0633 13.5016 12.0633C13.684 12.0633 13.9022 11.9755 14.1305 11.6901C15.3194 10.1972 15.9483 8.44961 16 6.49422C16 6.47519 16 6.45617 15.9971 6.43714L15.9943 6.4386ZM9.49274 7.87587V6.50007V5.11842C9.49274 3.87727 9.49131 2.59221 9.49705 1.33058C9.49705 1.10079 9.50136 0.399715 8.80928 0.0982101C8.11002 -0.207686 7.61896 0.28409 7.45671 0.445088C7.05324 0.849046 6.64546 1.25154 6.23911 1.65257C5.76385 2.12093 5.29002 2.59075 4.8205 3.0635C4.7085 3.1762 4.62666 3.21279 4.48451 3.20986C3.52106 3.19815 2.54324 3.20108 1.59702 3.20401H1.26247C0.441164 3.20547 0.00610235 3.64602 0.00323066 4.47589C-0.00107689 5.80925 -0.00107689 7.17041 0.00323066 8.52133C0.00610235 9.35266 0.441164 9.79321 1.26103 9.79614H1.508C2.48294 9.80053 3.4909 9.80346 4.48451 9.79175C4.63097 9.7859 4.70994 9.82541 4.8205 9.93665C5.29145 10.4109 5.76528 10.8807 6.24055 11.349C6.64689 11.7501 7.05324 12.1526 7.45528 12.5565C7.57876 12.6809 7.89752 13 8.35842 13C8.49626 13 8.64559 12.9722 8.80784 12.9019C9.49992 12.6004 9.49705 11.8994 9.49705 11.6696C9.49131 10.405 9.49274 9.11995 9.49274 7.87587ZM8.05546 11.1749L7.73383 10.8573C7.03601 10.1708 6.31378 9.45951 5.61165 8.75405C5.36181 8.5023 5.08613 8.38521 4.7444 8.38521C4.73865 8.38521 4.73291 8.38521 4.72573 8.38521C3.93458 8.39546 3.12907 8.39253 2.3494 8.39107C2.05793 8.39107 1.76645 8.39107 1.47497 8.39107H1.42328V4.60615H1.44626C1.73917 4.60615 2.03208 4.60615 2.325 4.60615C3.10179 4.60615 3.90586 4.60323 4.69558 4.61347C5.06028 4.61786 5.34745 4.49638 5.61308 4.22854C6.30516 3.53186 7.01734 2.83078 7.70511 2.15167L8.05546 1.80625V11.1749Z" fill="white"/>
</svg>
